<svg fill="currentColor" height="800px" width="800px" version="1.1" id="Layer_1" xmlns="http://www.w3.org/2000/svg" xmlns:xlink="http://www.w3.org/1999/xlink" 
	 viewBox="0 0 455 455" xml:space="preserve">
<g>
	<polygon points="161.667,186.941 161.667,303.183 293.333,268.059 293.333,224.989 245.705,164.522 	"/>
	<polygon points="161.667,450.999 293.333,415.874 293.333,299.108 161.667,334.232 	"/>
	<polygon points="0,263.946 131.667,302.664 131.667,186.643 0,147.926 	"/>
	<path d="M228.333,114.791c0-38.984,28.036-71.526,65-78.569V4.002L161.667,39.126v116.766l69.917-18.652
		C229.453,129.98,228.333,122.415,228.333,114.791z"/>
	<path d="M358.333,114.791c0-27.57-22.43-50-50-50s-50,22.43-50,50c0,11.342,3.722,22.043,10.763,30.945l39.237,49.813
		l39.221-49.791C354.612,136.834,358.333,126.133,358.333,114.791z M308.333,129.696c-8.219,0-14.905-6.687-14.905-14.905
		c0-8.219,6.686-14.905,14.905-14.905c8.219,0,14.905,6.686,14.905,14.905C323.238,123.009,316.552,129.696,308.333,129.696z"/>
	<polygon points="0,411.872 131.667,450.589 131.667,333.934 0,295.217 	"/>
	<polygon points="323.333,416.283 455,455 455,338.345 323.333,299.627 	"/>
	<polygon points="323.333,224.989 323.333,268.357 455,307.074 455,191.054 369.799,166 	"/>
	<polygon points="0,116.655 131.667,155.373 131.667,38.717 0,0 	"/>
	<path d="M323.333,4.411v31.811c36.964,7.043,65,39.585,65,78.569c0,8.262-1.318,16.455-3.813,24.268L455,159.783V43.128
		L323.333,4.411z"/>
</g>
</svg>