<svg fill="currentColor" height="800px" width="800px" version="1.1" id="Capa_1" xmlns="http://www.w3.org/2000/svg" xmlns:xlink="http://www.w3.org/1999/xlink" 
	 viewBox="0 0 369.817 369.817" xml:space="preserve">
<g>
	<path d="M369.312,260.117c-1.937-6.626-8.879-10.428-15.505-8.491l-187.427,54.788c-6.744-9.617-17.7-16.073-30.171-16.652
		L63.818,36.715c-0.912-3.188-3.053-5.882-5.951-7.491c-2.898-1.609-6.317-2.001-9.505-1.089L9.065,39.377
		c-6.637,1.899-10.479,8.819-8.58,15.456c1.899,6.637,8.819,10.476,15.456,8.58l27.279-7.804l68.957,241.047
		c-10.191,7.06-16.883,18.829-16.883,32.138c0,21.548,17.53,39.078,39.078,39.078c21.007,0,38.188-16.664,39.037-37.466
		l187.412-54.783C367.447,273.685,371.249,266.744,369.312,260.117z M134.372,342.871c-7.763,0-14.078-6.315-14.078-14.078
		s6.315-14.078,14.078-14.078c7.763,0,14.078,6.315,14.078,14.078S142.135,342.871,134.372,342.871z"/>
	<path d="M111.649,154.75c0.913,3.211,3.876,5.454,7.208,5.454c0.69,0,1.381-0.097,2.055-0.288l153.908-43.733
		c1.927-0.548,3.526-1.813,4.501-3.563c0.975-1.75,1.21-3.775,0.663-5.702L251.706,7.4c-0.913-3.211-3.876-5.454-7.207-5.454
		c-0.69,0-1.382,0.097-2.056,0.289L88.535,45.969c-1.927,0.547-3.526,1.813-4.502,3.563c-0.975,1.75-1.211,3.774-0.663,5.702
		L111.649,154.75z M150.245,66.393L199.42,52.42c0.675-0.193,1.368-0.29,2.058-0.29c3.33,0,6.293,2.243,7.206,5.454
		c1.13,3.978-1.186,8.134-5.164,9.265l-49.174,13.974c-0.674,0.192-1.366,0.289-2.056,0.289c-3.332,0-6.295-2.242-7.208-5.453
		C143.951,71.68,146.267,67.524,150.245,66.393z"/>
	<path d="M277.928,127.12l-153.907,43.733c-1.927,0.548-3.526,1.813-4.501,3.562c-0.976,1.75-1.212,3.775-0.664,5.702l28.279,99.52
		c0.913,3.211,3.877,5.453,7.208,5.453c0.69,0,1.381-0.097,2.055-0.289l153.909-43.734c1.927-0.548,3.526-1.813,4.501-3.562
		c0.976-1.751,1.212-3.775,0.664-5.702l-28.279-99.52c-0.912-3.21-3.876-5.453-7.208-5.453
		C279.295,126.831,278.603,126.929,277.928,127.12z M243.505,188.171c-0.975,1.75-2.574,3.015-4.501,3.563l-49.174,13.973
		c-0.673,0.191-1.365,0.289-2.055,0.289c-3.331,0-6.295-2.243-7.208-5.454c-0.548-1.927-0.312-3.952,0.664-5.702
		c0.975-1.75,2.574-3.015,4.501-3.563l49.173-13.973c0.675-0.192,1.367-0.289,2.057-0.289c3.331,0,6.295,2.243,7.207,5.454
		C244.717,184.396,244.481,186.421,243.505,188.171z"/>
</g>
</svg>